<?xml version="1.0" standalone="no"?>
<!DOCTYPE svg PUBLIC "-//W3C//DTD SVG 20010904//EN"
 "http://www.w3.org/TR/2001/REC-SVG-20010904/DTD/svg10.dtd">
<svg version="1.0" xmlns="http://www.w3.org/2000/svg"
 width="512.000000pt" height="512.000000pt" viewBox="0 0 512.000000 512.000000"
 preserveAspectRatio="xMidYMid meet">

<g transform="translate(0.000000,512.000000) scale(0.100000,-0.100000)"
fill="#000000" stroke="none">
<path d="M1550 5105 c-201 -41 -379 -148 -507 -305 -67 -82 -136 -221 -165
-330 l-23 -85 0 -1825 0 -1825 23 -85 c66 -248 232 -451 457 -560 188 -91 107
-85 1225 -85 1118 0 1037 -6 1225 85 225 109 391 312 457 560 l23 85 0 1825 0
1825 -23 85 c-66 248 -232 452 -457 560 -188 90 -102 84 -1200 86 -773 2 -983
0 -1035 -11z m2147 -850 c60 -18 116 -74 132 -132 8 -26 11 -458 11 -1359 l0
-1320 -27 -55 c-23 -45 -37 -59 -82 -81 l-55 -28 -1115 0 -1116 0 -51 24 c-53
25 -83 58 -102 115 -16 46 -17 2648 -1 2704 15 56 72 114 128 131 71 22 2204
23 2278 1z m-816 -3428 c29 -15 54 -40 74 -71 25 -41 29 -58 29 -116 0 -58 -4
-75 -29 -116 -20 -31 -45 -56 -74 -71 -43 -22 -50 -23 -321 -23 -271 0 -278 1
-321 23 -29 15 -54 40 -74 71 -25 41 -29 58 -29 116 0 58 4 75 29 116 20 31
45 56 74 71 43 22 50 23 321 23 271 0 278 -1 321 -23z"/>
</g>
</svg>
